<?xml version="1.0" encoding="UTF-8" standalone="no"?>
<svg
   xmlns:dc="http://purl.org/dc/elements/1.1/"
   xmlns:cc="http://creativecommons.org/ns#"
   xmlns:rdf="http://www.w3.org/1999/02/22-rdf-syntax-ns#"
   xmlns:svg="http://www.w3.org/2000/svg"
   xmlns="http://www.w3.org/2000/svg"
   viewBox="0 0 160.79875 27.395"
   height="27.395"
   width="160.79875"
   xml:space="preserve"
   version="1.1"
   id="svg2"><metadata
     id="metadata8"><rdf:RDF><cc:Work
         rdf:about=""><dc:format>image/svg+xml</dc:format><dc:type
           rdf:resource="http://purl.org/dc/dcmitype/StillImage" /><dc:title></dc:title></cc:Work></rdf:RDF></metadata><defs
     id="defs6"><clipPath
       id="clipPath16"
       clipPathUnits="userSpaceOnUse"><path
         id="path18"
         d="m 0,21.916 128.639,0 L 128.639,0 0,0 0,21.916 Z" /></clipPath></defs><g
     transform="matrix(1.25,0,0,-1.25,0,27.395)"
     id="g10"><g
       id="g12"><g
         clip-path="url(#clipPath16)"
         id="g14"><g
           transform="translate(17.9712,6.8135)"
           id="g20"><path
             id="path22"
             style="fill:#FFFFFF;fill-opacity:1;fill-rule:nonzero;stroke:none"
             d="m 0,0 -0.155,-6.171 -17.816,0 0,0.713 0.618,0 c 0.897,0 1.519,0.111 1.864,0.339 0.345,0.226 0.567,0.579 0.665,1.06 0.099,0.479 0.147,1.595 0.147,3.348 l 0,10.286 c 0,1.669 -0.048,2.746 -0.147,3.231 -0.098,0.485 -0.304,0.82 -0.619,1.005 -0.314,0.187 -1.002,0.279 -2.064,0.279 l -0.464,0 0,0.711 10.068,0 0,-0.711 -0.928,0 c -1.031,0 -1.707,-0.086 -2.026,-0.255 -0.319,-0.171 -0.534,-0.486 -0.642,-0.951 -0.108,-0.465 -0.162,-1.567 -0.162,-3.309 l 0,-10.982 c 0,-1.516 0.041,-2.464 0.124,-2.847 0.082,-0.381 0.306,-0.678 0.672,-0.889 0.367,-0.211 1.154,-0.315 2.359,-0.315 l 1.593,0 c 1.289,0 2.246,0.111 2.87,0.339 0.623,0.226 1.216,0.723 1.778,1.484 0.561,0.764 1.075,1.976 1.538,3.635 L 0,0 Z" /></g><g
           transform="translate(28.8403,10.9902)"
           id="g24"><path
             id="path26"
             style="fill:#FFFFFF;fill-opacity:1;fill-rule:nonzero;stroke:none"
             d="m 0,0 c 0,-3.398 0.678,-5.951 2.035,-7.655 1.355,-1.704 3.389,-2.556 6.102,-2.556 2.38,0 4.261,0.852 5.643,2.556 1.382,1.704 2.073,4.245 2.073,7.623 0,3.282 -0.682,5.801 -2.042,7.552 C 12.45,9.27 10.475,10.147 7.888,10.147 5.341,10.147 3.39,9.291 2.035,7.582 0.678,5.873 0,3.345 0,0 m -3.57,0.107 c 0,3.264 1.091,5.882 3.274,7.858 2.181,1.973 4.905,2.961 8.169,2.961 3.293,0 6.044,-0.978 8.252,-2.93 2.209,-1.955 3.314,-4.62 3.314,-7.996 0,-3.276 -1.058,-5.925 -3.174,-7.952 -2.114,-2.026 -4.896,-3.038 -8.347,-3.038 -3.356,0 -6.11,1.012 -8.26,3.038 -2.152,2.027 -3.228,4.715 -3.228,8.059" /></g><g
           transform="translate(71.8667,21.6142)"
           id="g28"><path
             id="path30"
             style="fill:#FFFFFF;fill-opacity:1;fill-rule:nonzero;stroke:none"
             d="m 0,0 0.169,-5.184 -0.722,0 c -0.143,1.134 -0.462,2.075 -0.958,2.815 -0.496,0.741 -1.016,1.205 -1.557,1.388 -0.541,0.183 -1.458,0.278 -2.746,0.278 l -4.065,0 0,-8.821 1.948,0 c 1.257,0 2.094,0.213 2.508,0.634 0.413,0.427 0.621,1.278 0.621,2.555 l 0.767,0 0,-7.331 -0.767,0 c 0,0.889 -0.089,1.592 -0.266,2.109 -0.181,0.517 -0.446,0.869 -0.801,1.058 -0.352,0.188 -1.04,0.283 -2.062,0.283 l -1.948,0 0,-5.169 c 0,-1.636 0.04,-2.708 0.124,-3.214 0.08,-0.506 0.286,-0.881 0.62,-1.126 0.333,-0.249 0.974,-0.37 1.925,-0.37 l 0.706,0 0,-0.705 -9.665,0 0,0.705 0.645,0 c 0.89,0 1.505,0.114 1.847,0.339 0.344,0.224 0.564,0.574 0.66,1.049 0.098,0.477 0.147,1.584 0.147,3.322 l 0,10.201 c 0,1.656 -0.049,2.725 -0.147,3.205 -0.096,0.483 -0.3,0.815 -0.614,0.998 -0.311,0.183 -0.992,0.278 -2.047,0.278 l -0.366,0 0,0.703 L 0,0 Z" /></g><g
           transform="translate(80.0571,16.6142)"
           id="g32"><path
             id="path34"
             style="fill:#FFFFFF;fill-opacity:1;fill-rule:nonzero;stroke:none"
             d="M 0,0 -0.705,0 -0.597,5 19.59,5 19.699,0 19.037,0 C 18.801,1.37 18.48,2.357 18.071,2.97 17.662,3.577 17.223,3.95 16.752,4.089 16.28,4.227 15.479,4.297 14.342,4.297 l -3.342,0 0,-14.682 c 0,-1.627 0.038,-2.695 0.115,-3.207 0.077,-0.512 0.283,-0.888 0.621,-1.133 0.336,-0.249 0.972,-0.37 1.901,-0.37 l 1.013,0 0,-0.705 -10.369,0 0,0.705 1.074,0 c 0.888,0 1.505,0.114 1.849,0.339 0.341,0.224 0.563,0.574 0.658,1.049 0.098,0.477 0.145,1.584 0.145,3.322 l 0,14.682 -3.083,0 C 3.584,4.297 2.686,4.232 2.225,4.104 1.764,3.975 1.334,3.59 0.929,2.945 0.523,2.301 0.215,1.319 0,0" /></g><g
           transform="translate(119.0815,9.7773)"
           id="g36"><path
             id="path38"
             style="fill:#FFFFFF;fill-opacity:1;fill-rule:nonzero;stroke:none"
             d="m 0,0 4.143,6.967 c 0.682,1.138 1.024,1.944 1.024,2.421 0,0.431 -0.181,0.831 -0.545,1.193 -0.36,0.364 -1.007,0.543 -1.937,0.543 l 0,0.713 6.873,0 0,-0.713 C 8.605,10.99 7.839,10.636 7.252,10.062 6.669,9.488 5.922,8.444 5.011,6.937 l -4.715,-7.868 0,-2.791 c 0,-1.79 0.053,-2.929 0.163,-3.421 0.109,-0.492 0.34,-0.836 0.696,-1.039 0.358,-0.202 1.06,-0.302 2.102,-0.302 l 0,-0.714 -8.963,0 0,0.714 0.338,0 c 0.9,0 1.524,0.114 1.872,0.341 0.346,0.227 0.565,0.584 0.658,1.062 0.092,0.482 0.14,1.601 0.14,3.359 l 0,2.591 -5.243,8.611 c -1.066,1.736 -1.774,2.773 -2.126,3.109 -0.35,0.337 -0.983,0.515 -1.892,0.535 l 0,0.713 8.53,0 0,-0.713 c -1.591,0 -2.388,-0.362 -2.388,-1.087 0,-0.288 0.264,-0.868 0.792,-1.736 L 0,0 Z" /></g></g></g></g></svg>
